<?xml version="1.0" encoding="iso-8859-1"?>
<!-- Uploaded to: SVG Repo, www.svgrepo.com, Generator: SVG Repo Mixer Tools -->
<svg height="800px" width="800px" version="1.1" id="Layer_1" xmlns="http://www.w3.org/2000/svg" xmlns:xlink="http://www.w3.org/1999/xlink" 
	 viewBox="0 0 512 512" xml:space="preserve">
<path style="fill:#D46366;" d="M371.568,182.629c5.459-13.978,8.46-29.188,8.46-45.101C380.028,69.029,324.5,13.5,256.001,13.5
	S131.974,69.029,131.974,137.528c0,15.912,3,31.122,8.46,45.101H371.568z"/>
<g>
	<path style="fill:#4C1B27;" d="M371.568,196.131H140.434c-5.561,0-10.553-3.409-12.577-8.59
		c-6.227-15.946-9.385-32.771-9.385-50.013C118.472,61.695,180.167,0,256.001,0S393.53,61.695,393.53,137.528
		c0,17.242-3.157,34.068-9.385,50.013C382.123,192.72,377.13,196.131,371.568,196.131z M150.057,169.127h211.888
		c3.043-10.206,4.581-20.797,4.581-31.598c0-60.943-49.581-110.524-110.525-110.524S145.476,76.586,145.476,137.529
		C145.476,148.329,147.014,158.921,150.057,169.127z"/>
	<path style="fill:#4C1B27;" d="M425.689,320.844H86.314c-29.276,0-53.092-23.817-53.092-53.092
		c0-17.477,8.595-33.826,22.991-43.734l60.478-41.626c8.895-6.122,19.303-9.358,30.099-9.358h218.418
		c10.797,0,21.204,3.235,30.099,9.357l60.478,41.626c14.397,9.908,22.991,26.257,22.991,43.734
		C478.78,297.028,454.963,320.844,425.689,320.844z M146.792,200.039c-5.305,0-10.419,1.59-14.791,4.599l-60.478,41.625
		c-7.074,4.869-11.297,12.902-11.297,21.491c0,14.385,11.703,26.088,26.088,26.088h339.373c14.385,0,26.088-11.703,26.088-26.088
		c0-8.587-4.223-16.621-11.297-21.491L380,204.637c-4.371-3.008-9.485-4.597-14.791-4.597H146.792z"/>
	<path style="fill:#4C1B27;" d="M395.82,512H116.184c-12.438,0-23.639-6.393-29.964-17.101c-6.326-10.708-6.519-23.605-0.516-34.497
		l56.41-102.37c3.598-6.532,11.811-8.907,18.341-5.309c6.531,3.6,8.908,11.811,5.309,18.341l-56.41,102.37
		c-1.939,3.519-0.564,6.578,0.115,7.731c0.68,1.153,2.698,3.832,6.716,3.832h279.635c3.976,0,5.996-2.64,6.681-3.774
		c0.683-1.134,2.074-4.153,0.215-7.669l-54.278-102.693c-3.485-6.593-0.964-14.761,5.628-18.246
		c6.59-3.485,14.761-0.965,18.246,5.628l54.277,102.693c5.753,10.885,5.395,23.678-0.959,34.224S408.131,512,395.82,512z"/>
</g>
<circle style="fill:#D46366;" cx="86.256" cy="269.603" r="36.422"/>
<path style="fill:#4C1B27;" d="M86.256,319.533c-27.529,0-49.925-22.395-49.925-49.925c0-27.529,22.395-49.924,49.925-49.924
	c27.529,0,49.924,22.395,49.924,49.924C136.18,297.136,113.783,319.533,86.256,319.533z M86.256,246.686
	c-12.639,0-22.922,10.282-22.922,22.921c0,12.639,10.283,22.922,22.922,22.922s22.921-10.283,22.921-22.922
	C109.176,256.968,98.895,246.686,86.256,246.686z"/>
<circle style="fill:#D46366;" cx="425.752" cy="269.603" r="36.422"/>
<path style="fill:#4C1B27;" d="M425.747,319.533c-27.529,0-49.924-22.395-49.924-49.925c0-27.529,22.395-49.924,49.924-49.924
	c27.529,0,49.925,22.395,49.925,49.924C475.672,297.136,453.275,319.533,425.747,319.533z M425.747,246.686
	c-12.639,0-22.921,10.282-22.921,22.921c0,12.639,10.282,22.922,22.921,22.922c12.639,0,22.922-10.283,22.922-22.922
	C448.669,256.968,438.386,246.686,425.747,246.686z"/>
<circle style="fill:#D46366;" cx="255.995" cy="269.603" r="36.422"/>
<path style="fill:#4C1B27;" d="M256.001,319.533c-27.529,0-49.925-22.395-49.925-49.925c0-27.529,22.395-49.924,49.925-49.924
	c27.53,0,49.925,22.395,49.925,49.924C305.927,297.136,283.53,319.533,256.001,319.533z M256.001,246.686
	c-12.639,0-22.922,10.282-22.922,22.921c0,12.639,10.283,22.922,22.922,22.922c12.639,0,22.922-10.283,22.922-22.922
	C278.923,256.968,268.64,246.686,256.001,246.686z"/>
</svg>